<?xml version="1.0" encoding="iso-8859-1"?>
<!-- Generator: Adobe Illustrator 18.1.1, SVG Export Plug-In . SVG Version: 6.00 Build 0)  -->
<svg xmlns="http://www.w3.org/2000/svg" xmlns:xlink="http://www.w3.org/1999/xlink" version="1.1" id="Capa_1" x="0px" y="0px" viewBox="0 0 228.994 228.994" style="enable-background:new 0 0 228.994 228.994;" xml:space="preserve" width="512px" height="512px">
<g>
	<g>
		<path d="M181.891,223.532c-0.859,0-1.73-0.207-2.529-0.625l-64.866-34.103l-64.872,34.103    c-1.833,0.963-4.052,0.8-5.733-0.413c-1.67-1.218-2.507-3.28-2.159-5.319l12.39-72.231L1.646,93.789    c-1.485-1.447-2.018-3.606-1.382-5.575c0.636-1.969,2.344-3.405,4.395-3.704l72.524-10.541l32.433-65.72    c1.833-3.715,7.925-3.715,9.758,0l32.433,65.72l72.524,10.541c2.051,0.299,3.748,1.735,4.395,3.704    c0.642,1.969,0.109,4.128-1.376,5.575l-52.482,51.149l12.385,72.231c0.348,2.04-0.49,4.101-2.165,5.319    C184.143,223.179,183.017,223.532,181.891,223.532z M114.496,177.218c0.865,0,1.735,0.207,2.529,0.626l57.643,30.306    l-11.003-64.186c-0.305-1.762,0.283-3.563,1.561-4.814l46.635-45.454l-64.453-9.366c-1.768-0.256-3.296-1.371-4.09-2.975    L114.496,22.95L85.674,81.35c-0.794,1.605-2.328,2.72-4.101,2.975L17.12,93.691l46.64,45.454c1.278,1.251,1.866,3.051,1.566,4.814    l-11.014,64.186l57.649-30.306C112.755,177.425,113.625,177.218,114.496,177.218z" fill="#FFFFFF"/>
	</g>
</g>
<g>
</g>
<g>
</g>
<g>
</g>
<g>
</g>
<g>
</g>
<g>
</g>
<g>
</g>
<g>
</g>
<g>
</g>
<g>
</g>
<g>
</g>
<g>
</g>
<g>
</g>
<g>
</g>
<g>
</g>
</svg>
