<?xml version="1.0" encoding="iso-8859-1"?>
<!-- Generator: Adobe Illustrator 19.0.0, SVG Export Plug-In . SVG Version: 6.00 Build 0)  -->
<svg xmlns="http://www.w3.org/2000/svg" xmlns:xlink="http://www.w3.org/1999/xlink" version="1.1" id="Capa_1" x="0px" y="0px" viewBox="0 0 512 512" style="enable-background:new 0 0 512 512;" xml:space="preserve" width="512px" height="512px">
<g>
	<g>
		<path d="M483.962,43.886h-71.924v36.571h53.638v394.971H46.324V80.457h53.029V43.886H28.038c-10.1,0-18.286,8.186-18.286,18.286    v431.543c0,10.1,8.186,18.286,18.286,18.286h455.924c10.1,0,18.286-8.186,18.286-18.286V62.171    C502.248,52.072,494.062,43.886,483.962,43.886z" fill="#FFFFFF"/>
	</g>
</g>
<g>
	<g>
		<rect x="165.79" y="43.886" width="180.419" height="36.571" fill="#FFFFFF"/>
	</g>
</g>
<g>
	<g>
		<rect x="28.038" y="143.238" width="456.533" height="36.571" fill="#FFFFFF"/>
	</g>
</g>
<g>
	<g>
		<path d="M165.79,0H99.352c-10.1,0-18.286,8.186-18.286,18.286V89.6c0,10.1,8.186,18.286,18.286,18.286h66.438    c10.1,0,18.286-8.186,18.286-18.286V18.286C184.076,8.186,175.89,0,165.79,0z M147.505,71.314h-29.867V36.571h29.867V71.314z" fill="#FFFFFF"/>
	</g>
</g>
<g>
	<g>
		<path d="M412.648,0H346.21c-10.1,0-18.286,8.186-18.286,18.286V89.6c0,10.1,8.186,18.286,18.286,18.286h66.438    c10.1,0,18.286-8.186,18.286-18.286V18.286C430.933,8.186,422.747,0,412.648,0z M394.362,71.314h-29.867V36.571h29.867V71.314z" fill="#FFFFFF"/>
	</g>
</g>
<g>
	<g>
		<path d="M185.905,210.286h-73.143c-10.1,0-18.286,8.186-18.286,18.286v67.048c0,10.1,8.186,18.286,18.286,18.286h73.143    c10.1,0,18.286-8.186,18.286-18.286v-67.048C204.19,218.472,196.005,210.286,185.905,210.286z M167.619,277.333h-36.571v-30.476    h36.571V277.333z" fill="#FFFFFF"/>
	</g>
</g>
<g>
	<g>
		<path d="M374.857,243.81H265.143c-10.1,0-18.286,8.186-18.286,18.286c0,10.1,8.186,18.286,18.286,18.286h109.714    c10.106,0,18.286-8.186,18.286-18.286C393.143,251.995,384.957,243.81,374.857,243.81z" fill="#FFFFFF"/>
	</g>
</g>
<g>
	<g>
		<path d="M185.905,344.381h-73.143c-10.1,0-18.286,8.186-18.286,18.286v67.048c0,10.1,8.186,18.286,18.286,18.286h73.143    c10.1,0,18.286-8.186,18.286-18.286v-67.048C204.19,352.567,196.005,344.381,185.905,344.381z M167.619,411.429h-36.571v-30.476    h36.571V411.429z" fill="#FFFFFF"/>
	</g>
</g>
<g>
	<g>
		<path d="M374.857,377.905H265.143c-10.1,0-18.286,8.186-18.286,18.286s8.186,18.286,18.286,18.286h109.714    c10.106,0,18.286-8.186,18.286-18.286C393.143,386.091,384.957,377.905,374.857,377.905z" fill="#FFFFFF"/>
	</g>
</g>
<g>
</g>
<g>
</g>
<g>
</g>
<g>
</g>
<g>
</g>
<g>
</g>
<g>
</g>
<g>
</g>
<g>
</g>
<g>
</g>
<g>
</g>
<g>
</g>
<g>
</g>
<g>
</g>
<g>
</g>
</svg>
